# File created by Blade
# Date/Time:  Mon Sep 22 17:46:01 2014
# Frame Rate: 120.000 fps
#------------------------------------------------------
:FULLY-SPECIFIED
:DEGREES
1417
root 5.982012 37.552937 5.405594 -9.348715 16.072187 -8.803103
RightUpLeg -6.958929 23.030720 -7.426080
RightLeg 84.290546 -0.000000 -0.000000
RightFoot -1.277960 -27.906660 4.798612
RightToeBase -6.297044 -0.000000 0.000000
LeftUpLeg 15.203297 -16.731512 -1.767512
LeftLeg -0.143791 -0.000000 0.000000
LeftFoot -9.268276 8.422367 -7.621674
LeftToeBase 6.976119 -0.000000 -0.000000
Spine 12.217957 -18.546370 -3.701534
RightShoulder -1.337833 -33.363241 -4.243976
RightArm 21.229981 -27.721643 61.629001
RightForeArm 4.417901 -0.000000 43.675991
RightHand -3.705054 -0.000000 -6.865441
RightHandThumb1 -24.326973 -0.000000 -32.862282
LeftShoulder -16.983861 35.149643 -0.776691
LeftArm 55.250627 -6.402024 -65.631712
LeftForeArm 22.442296 -0.000000 105.084927
LeftHand -23.891810 0.000000 15.328440
LeftHandThumb1 -26.253704 0.000000 33.147579
Head 29.674029 -6.295940 13.236674
1418
root 5.979717 37.544926 5.402944 -9.356094 15.867979 -8.671413
RightUpLeg -7.274665 22.679281 -7.373266
RightLeg 84.252160 -0.000000 -0.000000
RightFoot -1.856489 -27.790483 5.440284
RightToeBase -5.516523 -0.000000 0.000000
LeftUpLeg 15.143899 -16.450562 -1.851757
LeftLeg 0.078665 -0.000000 -0.000000
LeftFoot -9.373403 8.313267 -7.659308
LeftToeBase 6.980341 -0.000000 -0.000000
Spine 12.308817 -18.404695 -3.835910
RightShoulder -1.336748 -33.378827 -4.254364
RightArm 21.218948 -27.727031 61.597160
RightForeArm 4.605340 0.000000 43.622311
RightHand -3.698723 -0.000000 -7.033957
RightHandThumb1 -24.326973 -0.000000 -32.862282
LeftShoulder -17.005115 35.190149 -0.766468
LeftArm 55.222401 -6.373181 -65.542050
LeftForeArm 22.343210 0.000000 105.234498
LeftHand -23.859428 0.000000 15.362190
LeftHandThumb1 -26.253704 0.000000 33.147579
Head 29.656582 -6.175002 13.277535
1419
root 5.975948 37.537926 5.398973 -9.335348 15.653563 -8.535940
RightUpLeg -7.618892 22.285850 -7.332861
RightLeg 84.169383 -0.000000 -0.000000
RightFoot -1.722126 -27.742981 5.081233
RightToeBase -5.780493 -0.000000 0.000000
LeftUpLeg 15.085522 -16.172659 -1.932084
LeftLeg 0.236181 -0.000000 -0.000000
LeftFoot -9.426055 8.232933 -7.643127
LeftToeBase 6.941313 -0.000000 -0.000000
Spine 12.358836 -18.269270 -3.964107
RightShoulder -1.330031 -33.394520 -4.256592
RightArm 21.164988 -27.667069 61.620598
RightForeArm 4.702436 0.000000 43.584560
RightHand -3.707773 -0.000000 -6.851542
RightHandThumb1 -24.326973 -0.000000 -32.862282
LeftShoulder -17.033154 35.228614 -0.776009
LeftArm 55.173625 -6.381062 -65.473090
LeftForeArm 22.413615 -0.000000 105.373942
LeftHand -23.726380 0.000000 15.074093
LeftHandThumb1 -26.253704 0.000000 33.147579
Head 29.663379 -6.042015 13.296119
1420
root 5.972446 37.530628 5.394078 -9.307974 15.429610 -8.389470
RightUpLeg -7.992958 21.889593 -7.306948
RightLeg 84.128021 -0.000000 -0.000000
RightFoot -2.020721 -27.589532 5.320133
RightToeBase -5.653495 -0.000000 0.000000
LeftUpLeg 15.014578 -15.836624 -2.003292
LeftLeg 0.396090 -0.000000 -0.000000
LeftFoot -9.499203 8.078239 -7.694957
LeftToeBase 6.988357 -0.000000 -0.000000
Spine 12.412404 -18.178756 -4.113799
RightShoulder -1.291532 -33.393828 -4.287311
RightArm 21.134393 -27.642585 61.619835
RightForeArm 4.926535 -0.000000 43.533167
RightHand -3.578671 -0.000000 -7.092676
RightHandThumb1 -24.326973 -0.000000 -32.862282
LeftShoulder -17.111403 35.245093 -0.816587
LeftArm 55.090041 -6.405721 -65.377170
LeftForeArm 22.351550 -0.000000 105.532000
LeftHand -23.703504 0.000000 14.990595
LeftHandThumb1 -26.253704 0.000000 33.147579
Head 29.676874 -5.857802 13.334520
1421
root 5.970281 37.524033 5.388540 -9.285517 15.204011 -8.257088
RightUpLeg -8.365013 21.469725 -7.260071
RightLeg 84.072758 -0.000000 -0.000000
RightFoot -2.196353 -27.464944 5.407715
RightToeBase -5.942168 -0.000000 0.000000
LeftUpLeg 14.982467 -15.638463 -2.094218
LeftLeg 0.497932 -0.000000 -0.000000
LeftFoot -9.529666 8.037833 -7.704480
LeftToeBase 6.969048 -0.000000 -0.000000
Spine 12.471937 -18.083040 -4.245360
RightShoulder -1.253500 -33.351316 -4.311650
RightArm 21.039678 -27.582507 61.667589
RightForeArm 5.088720 -0.000000 43.473083
RightHand -3.524219 0.000000 -7.219510
RightHandThumb1 -24.326973 -0.000000 -32.862282
LeftShoulder -17.138361 35.188514 -0.801669
LeftArm 54.935022 -6.411881 -65.367196
LeftForeArm 22.282454 -0.000000 105.682205
LeftHand -23.592303 -0.000000 14.836392
LeftHandThumb1 -26.253704 0.000000 33.147579
Head 29.664733 -5.672086 13.403963
1422
root 5.963884 37.516831 5.383757 -9.251955 14.932778 -8.114904
RightUpLeg -8.769464 21.065120 -7.213108
RightLeg 84.040243 -0.000000 -0.000000
RightFoot -2.317369 -27.278034 5.402501
RightToeBase -5.801320 -0.000000 0.000000
LeftUpLeg 14.991383 -15.407411 -2.192208
LeftLeg 0.514320 -0.000000 -0.000000
LeftFoot -9.546362 8.054298 -7.764743
LeftToeBase 6.959926 -0.000000 -0.000000
Spine 12.515368 -17.896057 -4.393966
RightShoulder -1.294931 -33.344721 -4.274314
RightArm 21.005472 -27.537747 61.686839
RightForeArm 5.233970 0.000000 43.391725
RightHand -3.473926 -0.000000 -7.392772
RightHandThumb1 -24.326973 -0.000000 -32.862282
LeftShoulder -17.170263 35.182547 -0.789245
LeftArm 54.874575 -6.444297 -65.358042
LeftForeArm 22.060868 0.000000 105.802445
LeftHand -23.461561 -0.000000 14.661449
LeftHandThumb1 -26.253704 0.000000 33.147579
Head 29.646278 -5.572423 13.479954
1423
root 5.958151 37.509691 5.379301 -9.231191 14.679056 -7.990689
RightUpLeg -9.164320 20.610717 -7.138924
RightLeg 83.995545 -0.000000 -0.000000
RightFoot -2.532009 -27.159479 5.578750
RightToeBase -5.748785 -0.000000 0.000000
LeftUpLeg 15.029053 -15.245565 -2.296485
LeftLeg 0.497028 -0.000000 -0.000000
LeftFoot -9.566077 8.129985 -7.805968
LeftToeBase 6.956430 -0.000000 -0.000000
Spine 12.570511 -17.786823 -4.525308
RightShoulder -1.286716 -33.336246 -4.288372
RightArm 20.976110 -27.474860 61.717995
RightForeArm 5.292785 0.000000 43.320422
RightHand -3.571672 -0.000000 -7.408346
RightHandThumb1 -24.326973 -0.000000 -32.862282
LeftShoulder -17.238698 35.168736 -0.824179
LeftArm 54.788614 -6.532848 -65.386258
LeftForeArm 21.890197 -0.000000 105.944891
LeftHand -23.335319 0.000000 14.231645
LeftHandThumb1 -26.253704 0.000000 33.147579
Head 29.623988 -5.406735 13.519633
1424
root 5.950782 37.503571 5.374735 -9.233477 14.439111 -7.904103
RightUpLeg -9.532914 20.135187 -6.995844
RightLeg 83.952415 -0.000000 -0.000000
RightFoot -2.630551 -27.066978 5.561637
RightToeBase -6.072920 -0.000000 0.000000
LeftUpLeg 15.092162 -15.164855 -2.390095
LeftLeg 0.461977 -0.000000 -0.000000
LeftFoot -9.586290 8.302927 -7.837910
LeftToeBase 6.982911 -0.000000 -0.000000
Spine 12.644317 -17.689107 -4.615075
RightShoulder -1.246941 -33.265474 -4.325244
RightArm 20.844444 -27.361282 61.834793
RightForeArm 5.406976 -0.000000 43.250976
RightHand -3.551314 -0.000000 -7.459158
RightHandThumb1 -24.326973 -0.000000 -32.862282
LeftShoulder -17.284047 35.160105 -0.859101
LeftArm 54.740632 -6.592486 -65.392954
LeftForeArm 22.093668 0.000000 106.036376
LeftHand -23.496157 -0.000000 14.313139
LeftHandThumb1 -26.253704 0.000000 33.147579
Head 29.595389 -5.236302 13.548349
1425
root 5.941706 37.497887 5.372517 -9.261165 14.157371 -7.823320
RightUpLeg -9.887198 19.662181 -6.822701
RightLeg 83.894099 -0.000000 -0.000000
RightFoot -2.723173 -27.013597 5.599496
RightToeBase -5.766616 -0.000000 0.000000
LeftUpLeg 15.212660 -15.057754 -2.486312
LeftLeg 0.377376 -0.000000 -0.000000
LeftFoot -9.600250 8.533125 -7.840118
LeftToeBase 7.009988 -0.000000 -0.000000
Spine 12.746281 -17.539442 -4.708950
RightShoulder -1.212794 -33.210624 -4.350717
RightArm 20.718764 -27.221671 61.961707
RightForeArm 5.619450 -0.000000 43.193845
RightHand -3.436051 0.000000 -7.336842
RightHandThumb1 -24.326973 -0.000000 -32.862282
LeftShoulder -17.303993 35.159308 -0.861977
LeftArm 54.708907 -6.654621 -65.429698
LeftForeArm 22.274820 0.000000 106.115546
LeftHand -23.572543 -0.000000 14.436201
LeftHandThumb1 -26.253704 0.000000 33.147579
Head 29.544067 -5.081669 13.596830
1426
root 5.933690 37.491052 5.368618 -9.286448 13.875309 -7.726881
RightUpLeg -10.258898 19.192157 -6.664455
RightLeg 83.872749 -0.000000 -0.000000
RightFoot -2.744292 -26.940528 5.636204
RightToeBase -6.629970 -0.000000 0.000000
LeftUpLeg 15.337374 -14.974283 -2.611295
LeftLeg 0.280970 -0.000000 -0.000000
LeftFoot -9.589427 8.797146 -7.825071
LeftToeBase 6.948947 -0.000000 -0.000000
Spine 12.859139 -17.389435 -4.822471
RightShoulder -1.188673 -33.174916 -4.371080
RightArm 20.637479 -27.107860 62.056535
RightForeArm 5.759033 0.000000 43.144298
RightHand -3.493678 0.000000 -7.424660
RightHandThumb1 -24.326973 -0.000000 -32.862282
LeftShoulder -17.314224 35.114138 -0.839891
LeftArm 54.633458 -6.766789 -65.546801
LeftForeArm 22.004067 0.000000 106.224723
LeftHand -23.452934 -0.000000 14.132750
LeftHandThumb1 -26.253704 0.000000 33.147579
Head 29.470550 -4.929377 13.682927
1427
root 5.923674 37.486887 5.364231 -9.329540 13.604570 -7.670690
RightUpLeg -10.601337 18.697815 -6.461448
RightLeg 83.824870 -0.000000 -0.000000
RightFoot -2.799193 -26.810982 5.694508
RightToeBase -5.727383 -0.000000 0.000000
LeftUpLeg 15.463437 -14.935407 -2.704746
LeftLeg 0.202674 -0.000000 -0.000000
LeftFoot -9.597461 9.076888 -7.839889
LeftToeBase 6.898029 -0.000000 -0.000000
Spine 12.988922 -17.273337 -4.898966
RightShoulder -1.129114 -33.083537 -4.417623
RightArm 20.528228 -26.982765 62.185894
RightForeArm 5.824452 0.000000 43.035707
RightHand -3.464780 -0.000000 -7.471244
RightHandThumb1 -24.326973 -0.000000 -32.862282
LeftShoulder -17.332941 35.067111 -0.843025
LeftArm 54.573225 -6.884960 -65.651653
LeftForeArm 22.028353 -0.000000 106.303228
LeftHand -23.526355 -0.000000 13.995705
LeftHandThumb1 -26.253704 0.000000 33.147579
Head 29.411284 -4.798777 13.691151
1428
root 5.912098 37.482418 5.361660 -9.381619 13.338894 -7.620647
RightUpLeg -10.928749 18.171531 -6.242963
RightLeg 83.780687 -0.000000 -0.000000
RightFoot -2.994176 -26.715286 5.972348
RightToeBase -5.290785 -0.000000 0.000000
LeftUpLeg 15.585377 -14.890571 -2.791482
LeftLeg 0.147502 -0.000000 -0.000000
LeftFoot -9.635005 9.366777 -7.824150
LeftToeBase 6.908366 -0.000000 -0.000000
Spine 13.121826 -17.148896 -4.974397
RightShoulder -1.097655 -33.060702 -4.440243
RightArm 20.449172 -26.827080 62.298717
RightForeArm 5.991471 -0.000000 43.004692
RightHand -3.455635 -0.000000 -7.516113
RightHandThumb1 -24.326973 -0.000000 -32.862282
LeftShoulder -17.331348 35.039741 -0.845340
LeftArm 54.530069 -7.026980 -65.708501
LeftForeArm 21.976671 0.000000 106.356153
LeftHand -23.485097 -0.000000 14.109897
LeftHandThumb1 -26.253704 0.000000 33.147579
Head 29.341009 -4.662767 13.712755
